#!OML:ASF H:\Terrain\Patient Classification 1\Terrain2\Thursday\justin.ASF
:FULLY-SPECIFIED
:DEGREES
1790
root -13.2182 17.3863 21.9806 -2.57724 43.077 -7.49406
lowerback 3.6035 -5.04006 -1.48071
upperback 0.433647 -6.71229 3.84159
thorax -0.931133 -3.35248 5.04723
lowerneck 6.6796 -17.3468 -19.4125
upperneck 3.92516 -24.8843 13.4965
head 4.18971 -12.6519 5.70704
rclavicle -1.51325e-014 -1.68967e-015
rhumerus -31.2585 -11.0351 -77.9135
rradius 26.146
rwrist -11.7218
rhand -20.8883 12.9985
rfingers 7.12502
rthumb 5.48223 -16.9106
lclavicle -1.51325e-014 -1.68967e-015
lhumerus -36.3586 9.07446 84.1159
lradius 30.9721
lwrist 4.00708
lhand -18.9173 19.182
lfingers 7.12502
lthumb 7.385 49.0331
rfemur -14.7483 -2.19205 24.3146
rtibia 37.5461
rfoot -21.7649 9.18518
rtoes 23.4355
lfemur -12.4086 6.05386 -17.4245
ltibia 36.4333
lfoot -26.4473 9.623
ltoes 21.9509
1791
root -13.2165 17.3689 21.9751 -2.84028 42.9458 -7.79439
lowerback 3.68627 -5.04533 -1.19287
upperback 0.459829 -6.7055 3.88543
thorax -0.978725 -3.34848 4.94055
lowerneck 9.0672 -16.8423 -18.525
upperneck 1.08959 -24.3252 13.806
head 2.80884 -12.4432 6.15083
rclavicle 4.49502e-014 -8.24956e-015
rhumerus -31.2675 -10.7811 -78.0415
rradius 26.3216
rwrist -12.063
rhand -21.0161 13.0001
rfingers 7.12502
rthumb 5.35879 -16.9121
lclavicle 4.49502e-014 -8.24956e-015
lhumerus -36.239 9.03694 84.1048
lradius 30.7272
lwrist 4.13558
lhand -19.0774 19.1988
lfingers 7.12502
lthumb 7.23048 49.0553
rfemur -14.7225 -2.29911 24.5392
rtibia 37.5738
rfoot -21.7054 9.37813
rtoes 23.3304
lfemur -12.5753 7.36097 -17.2307
ltibia 36.4729
lfoot -25.1596 10.8508
ltoes 12.5892
1792
root -13.2149 17.3651 21.9708 -3.27109 42.8126 -8.25402
lowerback 3.89659 -5.04796 -0.795276
upperback 0.445639 -6.68631 3.94681
thorax -1.15052 -3.33568 4.80709
lowerneck 6.66553 -17.2771 -19.4255
upperneck 3.97047 -24.7896 13.4598
head 4.18739 -12.6055 5.70867
rclavicle 1.31595e-013 -3.23025e-014
rhumerus -31.3763 -10.973 -78.0141
rradius 26.4345
rwrist -11.9208
rhand -21.0232 12.8784
rfingers 7.12502
rthumb 5.35198 -17.034
lclavicle 1.31595e-013 -3.23025e-014
lhumerus -36.4106 8.90367 84.1104
lradius 30.79
lwrist 4.42939
lhand -19.482 19.5691
lfingers 7.12502
lthumb 6.83991 49.4386
rfemur -14.6314 -2.23034 24.9082
rtibia 37.6472
rfoot -21.7565 9.42955
rtoes 23.227
lfemur -12.4634 7.35593 -16.8348
ltibia 36.5058
lfoot -25.2823 10.9843
ltoes 12.4041
1793
root -13.2133 17.3629 21.9663 -3.37916 42.694 -8.30844
lowerback 3.89259 -5.05688 -0.7785
upperback 0.549459 -6.69958 3.96277
thorax -1.04008 -3.34535 4.80769
lowerneck 7.76209 -16.9693 -18.8698
upperneck 2.44342 -24.4102 13.6376
head 3.4501 -12.4472 5.93321
rclavicle 2.53078e-014 -2.32578e-014
rhumerus -31.2486 -11.1556 -78.0415
rradius 26.521
rwrist -11.8305
rhand -21.077 12.8281
rfingers 7.12502
rthumb 5.30001 -17.0857
lclavicle 2.53078e-014 -2.32578e-014
lhumerus -36.4281 9.00014 84.026
lradius 30.8914
lwrist 4.40794
lhand -19.3065 19.5835
lfingers 7.12502
lthumb 7.00933 49.4475
rfemur -14.5716 -2.15198 24.9418
rtibia 37.67
rfoot -21.7396 9.45528
rtoes 22.7198
lfemur -12.4125 7.24459 -16.7982
ltibia 36.5219
lfoot -25.1824 11.3731
ltoes 11.2502
1794
root -13.2109 17.3592 21.9593 -3.27761 42.6434 -8.15971
lowerback 3.80957 -5.0862 -0.886188
upperback 0.643694 -6.74766 3.93687
thorax -0.88317 -3.37326 4.82702
lowerneck 6.75729 -17.1117 -19.7899
upperneck 3.69623 -24.6351 14.1354
head 4.1987 -12.5344 5.97808
rclavicle -1.27794e-013 1.88845e-015
rhumerus -31.1259 -11.0453 -78.176
rradius 26.6722
rwrist -12.0548
rhand -21.1729 12.9092
rfingers 7.12502
rthumb 5.20741 -17.0068
lclavicle -1.27794e-013 1.88845e-015
lhumerus -36.3556 9.218 83.8874
lradius 31.0145
lwrist 4.12437
lhand -18.8248 20.2657
lfingers 7.12502
lthumb 7.47423 50.1137
rfemur -14.5807 -2.20994 24.7894
rtibia 37.6212
rfoot -21.5576 9.58029
rtoes 22.3025
lfemur -12.4027 7.11629 -16.9461
ltibia 36.5285
lfoot -25.3413 11.3231
ltoes 12.8254
